PathFileType	4	(X/Y/Z)	C:\Users\Basilio\Documents\Thesis Gigler\squatting_fais\c3dfiles\073\SLS_back_pre1\markers_experimental.trc
DataRate	CameraRate	NumFrames	NumMarkers	Units	OrigDataRate	OrigDataStartFrame	OrigNumFrames
200.000000	200.000000	4	61	mm	200.000000	0	1271
Frame#	Time	FHD			LBHD			RBHD			C7			T10			CLAV			LSHO			LUUPA			LMUPA			LDUPA			LLEP			LMEP			LRAD			LUL			LRFIN			RSHO			RUPA1			RMUPA			RDUPA			RLEP			RMEP			RRAD			RUL			RUFIN			LASI			RASI			USACR			LSACR			RSACR			LTHI1			LTHI2			LTHI3			LTHI4			LLFC			LTIB1			LTIB2			LTIB3			LTIB4			LLMAL			LMMAL			LHEE			LMT1			LMT2			LMT5			RTHI			RTHI2			RTHI3			RTHI4			RLFC			RMFC			RTIB1			RTIB2			RTIB3			RTIB4			RLMAL			RMMAL			RHEE			RMT1			RMT2			RMT5			LMFC			
		X1	Y1	Z1	X2	Y2	Z2	X3	Y3	Z3	X4	Y4	Z4	X5	Y5	Z5	X6	Y6	Z6	X7	Y7	Z7	X8	Y8	Z8	X9	Y9	Z9	X10	Y10	Z10	X11	Y11	Z11	X12	Y12	Z12	X13	Y13	Z13	X14	Y14	Z14	X15	Y15	Z15	X16	Y16	Z16	X17	Y17	Z17	X18	Y18	Z18	X19	Y19	Z19	X20	Y20	Z20	X21	Y21	Z21	X22	Y22	Z22	X23	Y23	Z23	X24	Y24	Z24	X25	Y25	Z25	X26	Y26	Z26	X27	Y27	Z27	X28	Y28	Z28	X29	Y29	Z29	X30	Y30	Z30	X31	Y31	Z31	X32	Y32	Z32	X33	Y33	Z33	X34	Y34	Z34	X35	Y35	Z35	X36	Y36	Z36	X37	Y37	Z37	X38	Y38	Z38	X39	Y39	Z39	X40	Y40	Z40	X41	Y41	Z41	X42	Y42	Z42	X43	Y43	Z43	X44	Y44	Z44	X45	Y45	Z45	X46	Y46	Z46	X47	Y47	Z47	X48	Y48	Z48	X49	Y49	Z49	X50	Y50	Z50	X51	Y51	Z51	X52	Y52	Z52	X53	Y53	Z53	X54	Y54	Z54	X55	Y55	Z55	X56	Y56	Z56	X57	Y57	Z57	X58	Y58	Z58	X59	Y59	Z59	X60	Y60	Z60	X61	Y61	Z61	

1	0	-183.2903594970703	1683.778930664063	-748.8687133789064	-317.8121643066407	1656.32421875	-775.7649536132815	-343.5045471191407	1638.241577148438	-642.8001708984376	-376.5745544433594	1537.012329101563	-709.6247558593751	-423.7482299804689	1200.183471679688	-726.6780395507814	-256.1930541992188	1448.056396484375	-707.5864868164064	-278.6984863281251	1495.969116210938	-855.5469360351565	-192.562728881836	1419.610595703125	-945.437438964844	-152.3855133056641	1441.149658203125	-923.3767089843752	-129.2555541992188	1393.593383789063	-953.9810791015627	-25.29802322387696	1369.485961914063	-954.4758911132815	-29.27802276611329	1316.000244140625	-908.2378540039065	236.1414947509766	1396.262084960938	-850.3785400390627	237.6511993408204	1387.085571289063	-924.4681396484377	316.9416503906251	1409.645874023438	-846.8682250976565	-279.0464172363282	1481.254516601563	-557.8417358398439	-190.3539581298828	1373.385131835938	-464.434539794922	-150.7319641113282	1397.278442382813	-477.0361633300782	-127.4089660644532	1345.31396484375	-458.6847229003907	-35.53837203979493	1329.321533203125	-456.6314086914064	-35.15842437744141	1281.738525390625	-524.0791625976564	221.7100677490235	1380.274780273438	-554.8300781250001	226.4928741455079	1373.245483398438	-478.9985351562501	311.0106811523438	1407.561401367188	-546.3189086914064	-258.6246337890626	1040.66748046875	-857.1074829101565	-262.7273864746094	1024.814697265625	-603.5658569335939	-442.6324157714845	1100.046997070313	-728.8780517578126	-456.1611633300782	1073.017944335938	-759.0808715820314	-460.4692687988282	1068.530639648438	-702.7704467773439	-261.3809204101563	715.9622192382814	-906.1940917968752	-218.9544067382813	644.5054931640626	-887.820739746094	-179.3504180908203	652.3329467773439	-859.6512451171877	-243.8487548828126	589.7206420898439	-881.7424316406252	-253.9300842285157	543.2220458984376	-879.6502075195315	-399.1776733398439	419.9835815429689	-831.8746337890627	-458.8815002441407	460.9343566894532	-880.0771484375002	-450.8015136718751	421.4888916015626	-862.199401855469	-522.6300659179689	392.6862182617189	-826.6456298828127	-655.8829956054689	410.5523376464845	-849.9940185546877	-624.5690307617189	404.5535278320314	-765.2795410156251	-699.5869750976564	457.2007141113282	-802.2996826171877	-641.2576904296876	240.508041381836	-772.547058105469	-642.8398437500001	239.3924560546876	-812.336364746094	-679.5222778320314	266.8981628417969	-862.1052246093752	-353.1635742187501	792.461120605469	-555.7117309570314	-315.7209777832032	737.8911132812501	-558.1611938476564	-282.2381286621094	740.4915161132814	-559.5863647460939	-338.4164123535157	662.1130981445314	-585.2385253906251	-316.2505187988282	513.8236694335939	-610.5508422851564	-310.8794860839844	513.0552978515626	-741.1632690429689	-280.7091979980469	356.3254394531251	-710.0579223632814	-308.7243041992188	270.7646789550782	-650.6627807617189	-283.3881835937501	271.1527709960938	-692.2424926757814	-304.5640869140626	230.301254272461	-729.5028686523439	-361.1227111816407	99.20469665527347	-686.8573608398439	-353.5475463867188	128.8724517822266	-772.0058593750002	-430.9180297851564	80.99407958984376	-744.1527709960939	-206.7597961425782	55.59053039550783	-759.9537353515626	-206.1212921142579	51.57765960693361	-719.6713867187501	-248.3498077392579	34.42704772949219	-670.0797119140626	nan	nan	nan	
2	0.005	-183.0843963623047	1683.78955078125	-748.9039916992189	-317.5991210937501	1656.22802734375	-775.8225097656252	-343.4472656250001	1638.15234375	-642.8517456054689	-376.5147399902344	1536.974243164063	-709.7105712890626	-423.6956481933595	1200.128051757813	-726.7061767578126	-256.0861816406251	1448.006225585938	-707.6043701171876	-278.5739746093751	1495.925415039063	-855.5673828125002	-192.3412017822266	1419.544921875	-945.4519042968752	-152.114990234375	1441.139038085938	-923.3181762695315	-129.1115875244141	1393.636474609375	-953.9151000976565	-25.05167961120606	1369.514892578125	-954.451843261719	-29.00360298156739	1316.037475585938	-908.277526855469	236.3484497070313	1396.254272460938	-850.380554199219	237.9178314208985	1387.112915039063	-924.4669189453127	317.1850280761719	1409.5390625	-846.889587402344	-279.0110778808594	1481.219970703125	-557.9117431640626	-190.3473510742188	1373.3720703125	-464.5783081054689	-150.6932067871094	1397.237548828125	-477.1762084960939	-127.3349304199219	1345.315063476563	-458.7325439453126	-35.49274063110352	1329.357299804688	-456.714569091797	-35.15546798706055	1281.696166992188	-524.0679931640626	221.8583984375001	1380.0517578125	-554.8811035156251	226.5553894042969	1373.0791015625	-479.0144348144532	311.1642761230469	1407.186645507813	-546.3565063476564	-258.5748291015626	1040.557983398438	-857.120544433594	-262.7717285156251	1024.7724609375	-603.5034790039064	-442.6358032226564	1100.003051757813	-728.9461669921876	-456.1484375000001	1072.96875	-759.1129760742189	-460.4523010253907	1068.495849609375	-702.8003540039064	-261.3183288574219	715.8925781250001	-906.1077880859377	-218.7791748046876	644.4173583984376	-887.6436157226565	-179.2538757324219	652.2518310546876	-859.526306152344	-243.7339782714844	589.6203002929689	-881.5535278320315	-253.8255310058594	543.1462402343751	-879.524597167969	-399.006561279297	420.0283508300782	-831.626647949219	-458.7424316406251	460.9494934082032	-880.0897216796877	-450.8026733398439	421.4927978515626	-862.197692871094	-522.5953369140626	392.7207336425782	-826.7947387695315	-655.7804565429689	410.6828613281251	-850.2088012695315	-624.6055908203126	404.6563720703126	-765.4528198242189	-699.5756835937501	457.3243713378907	-802.540222167969	-641.2994995117189	240.6403045654297	-772.655456542969	-642.9031982421876	239.4795837402344	-812.474060058594	-679.4971923828126	266.9758911132813	-862.268249511719	-353.1981811523438	792.3731079101565	-555.7799682617189	-315.7413330078126	737.8479614257814	-558.1958618164064	-282.2304077148438	740.4533081054689	-559.5797119140626	-338.4442749023438	662.0651245117189	-585.2820434570314	-316.1771850585938	513.7758178710939	-610.5889892578126	-310.7832031250001	513.0272827148439	-741.2097167968751	-280.6314392089844	356.2916259765626	-710.1605224609376	-308.6391601562501	270.6431274414063	-650.8276367187501	-283.3542175292969	271.1384582519532	-692.3225708007814	-304.5217895507813	230.3010711669922	-729.6387329101564	-361.1184692382813	99.27264404296878	-686.9310913085939	-353.5816650390626	128.8263397216797	-772.1132812500002	-430.9158020019532	80.98727416992189	-744.2003173828126	-206.7479705810547	55.53221511840822	-759.9527587890626	-206.1181640625001	51.57990646362306	-719.6741333007814	-248.3670959472657	34.45230102539063	-670.1035766601564	nan	nan	nan	
3	0.01	-182.9582977294922	1683.756225585938	-748.8703613281251	-317.6049194335938	1656.2392578125	-775.925964355469	-343.4096679687501	1638.09326171875	-643.0080566406251	-376.4099731445313	1536.911499023438	-709.8659057617189	-423.6408081054689	1200.070434570313	-726.8101196289064	-255.991928100586	1447.997802734375	-707.6179809570314	-278.4059448242188	1495.888549804688	-855.5996093750002	-192.136947631836	1419.53759765625	-945.4943847656252	-151.9736633300782	1441.136596679688	-923.3525390625002	-128.8857421875	1393.610473632813	-953.9348144531252	-24.81104469299317	1369.541625976563	-954.4091796875002	-28.81047439575196	1315.998657226563	-908.2644042968752	236.4848632812501	1396.221435546875	-850.3710937500002	238.195297241211	1387.152709960938	-924.4546508789065	317.4755249023438	1409.376586914063	-846.8958129882815	-278.9421997070313	1481.15380859375	-558.0032958984376	-190.2714080810547	1373.358642578125	-464.6377258300782	-150.6531829833985	1397.240600585938	-477.2322082519532	-127.3320236206055	1345.337890625	-458.749481201172	-35.47990036010743	1329.333984375	-456.7380676269532	-35.15634155273438	1281.682006835938	-524.1057739257814	221.9877471923829	1379.861694335938	-554.9055175781251	226.5898895263672	1372.916137695313	-479.0922241210939	311.2582397460938	1406.75732421875	-546.5310668945314	-258.5476379394532	1040.462768554688	-857.0888671875002	-262.7999267578126	1024.68994140625	-603.5144653320314	-442.6514282226564	1099.934936523438	-728.9979248046876	-453.660125732422	1072.288452148438	-758.9011840820314	-460.2093200683595	1068.603515625	-702.7684936523439	-261.2236328125001	715.8548583984376	-906.0516357421877	-218.7247314453126	644.3666992187501	-887.4852294921877	-179.1706695556641	652.1905517578126	-859.3570556640627	-243.6424102783204	589.5468139648439	-881.4165649414065	-253.6781005859376	543.0789794921876	-879.4287719726565	-398.9608764648439	420.0037231445314	-831.7640380859377	-458.6473083496095	460.9263305664064	-880.085388183594	-450.6739196777345	421.5106506347657	-862.241394042969	-522.5432739257814	392.747039794922	-826.8088989257815	-655.7287597656251	410.7946166992189	-850.4837646484377	-624.6114501953126	404.7879638671876	-765.6335449218751	-699.5032958984376	457.4353637695314	-802.865905761719	-641.8082275390626	240.6583862304688	-772.3453369140627	-643.6215820312501	239.1489410400391	-811.8489379882815	-679.4144287109376	267.0786437988282	-862.455261230469	-353.2207641601563	792.3022460937502	-555.8345336914064	-315.7483825683594	737.7870483398439	-558.2630004882814	-282.2261962890626	740.4198608398439	-559.5813598632814	-338.3835754394532	661.9857177734376	-585.3676757812501	-316.1275939941407	513.6961669921876	-610.6647949218751	-310.7354125976563	512.9397583007814	-741.2692260742189	-280.5926208496094	356.2252502441407	-710.2814331054689	-308.4836425781251	270.6534423828126	-650.9263916015626	-283.2955017089844	271.1098937988282	-692.4893188476564	-304.4630737304688	230.288070678711	-729.7893676757814	-361.0966186523438	99.29682922363284	-687.0737915039064	-353.9656982421876	128.5380554199219	-771.6487426757815	-430.9156494140626	80.98756408691408	-744.1896972656251	-206.7623596191407	55.49268722534181	-759.9857177734376	-206.1084899902344	51.55910110473634	-719.7337646484376	-248.3447570800782	34.49702453613282	-670.0889892578126	nan	nan	nan	
4	0.015	-182.9524230957032	1683.655151367188	-748.8632202148439	-317.3846740722657	1656.179077148438	-776.028259277344	-343.4126281738282	1638.015258789063	-642.9938964843751	-376.3701171875001	1536.8818359375	-709.9750366210939	-423.6555480957032	1200.01416015625	-726.8276977539064	-255.9089965820313	1447.943115234375	-707.5944213867189	-278.2072448730469	1495.801879882813	-855.6550903320315	-191.872299194336	1419.487915039063	-945.5022583007815	-151.7689361572266	1441.095825195313	-923.332946777344	-128.7032165527344	1393.572265625	-953.8947753906252	-24.64619445800782	1369.543090820313	-954.3692016601565	-28.5965976715088	1316.058227539063	-908.2659912109377	236.6837921142579	1396.223510742188	-850.3710937500002	238.351303100586	1387.174926757813	-924.4737548828127	317.6859436035157	1409.310668945313	-846.9395141601565	-278.9233398437501	1481.13427734375	-558.1283569335939	-190.2467346191407	1373.36279296875	-464.7207641601564	-150.652816772461	1397.256469726563	-477.3477783203126	-127.2865295410157	1345.337280273438	-458.8150329589845	-35.43041229248048	1329.355712890625	-456.8206787109376	-35.16961669921876	1281.652221679688	-524.1226806640626	221.9982299804688	1379.61767578125	-554.9431152343751	226.6700134277344	1372.728271484375	-479.1415100097657	311.3482666015626	1406.384643554688	-546.5780639648439	-258.5035400390626	1040.403198242188	-857.0681152343752	-262.8395690917969	1024.645629882813	-603.5172119140626	-442.6210937500001	1099.867553710938	-729.0175170898439	-453.6317443847657	1072.22412109375	-758.9307861328126	-460.2058410644532	1068.59814453125	-702.8041381835939	-261.1539001464844	715.7175903320314	-905.9490966796877	-218.6165008544922	644.2620849609376	-887.3399658203127	-179.0550689697266	652.1122436523439	-859.2556762695315	-243.5746459960938	589.4571533203126	-881.242858886719	-253.5670623779297	543.0382690429689	-879.2114868164065	-398.9622802734376	419.9899902343751	-831.7274169921877	-458.5697021484376	460.9568481445314	-880.0871582031252	-450.6537170410157	421.5429992675782	-862.2285156250002	-522.5067138671876	392.9037475585939	-826.9402465820315	-655.6853637695314	410.9350891113282	-850.7131958007815	-624.6209106445314	404.9193725585939	-765.8030395507814	-699.5120239257814	457.5643310546876	-803.116882324219	-641.8702392578126	240.7350769042969	-772.4629516601565	-643.6011962890626	239.2714080810547	-811.9573364257815	-679.3571166992189	267.1515197753907	-862.653259277344	-353.2100219726563	792.256042480469	-555.8832397460939	-315.7302246093751	737.7280883789064	-558.2893066406251	-282.2684020996094	740.3534545898439	-559.6387939453126	-338.3601684570313	661.9262695312501	-585.4164428710939	-316.0421447753907	513.6372680664064	-610.7499389648439	-310.5790405273438	512.9578247070314	-741.3253173828126	-280.6067504882813	356.2073974609376	-710.4128417968751	-308.4061889648438	270.5729064941407	-651.0618896484376	-283.2241821289063	271.0838928222657	-692.6081542968751	-304.4406433105469	230.2882995605469	-729.9016113281251	-361.0778808593751	99.36692047119143	-687.2338867187501	-353.9376220703126	128.452880859375	-771.7615356445315	-430.9114379882814	80.99331665039064	-744.2608032226564	-206.7559356689454	55.4669647216797	-759.9758300781251	-206.0859069824219	51.60245513916017	-719.6937866210939	-248.3425292968751	34.50038528442384	-670.1387329101564	nan	nan	nan	
